<svg class="img-fluid" id="outputsvg" xmlns="http://www.w3.org/2000/svg" style="transform: none; transform-origin: 50% 50%; cursor: move; max-height: none;" width="1604" height="656" viewBox="0 0 16040 6560"><g id="l4Jcd2R9m9qDd62Dd5fC8Zd" fill="rgb(255,255,255)" style="transform: none;"><g style="transform: none;"><path id="pU4D4dRL0" d="M1405 5164 c-11 -2 -45 -9 -75 -15 -143 -28 -247 -136 -279 -287 -15 -72 -15 -722 0 -794 35 -160 129 -255 291 -293 137 -32 295 -11 396 54 65 43 90 72 130 158 l27 58 0 420 c0 417 0 420 -23 470 -52 113 -129 183 -232 210 -57 15 -201 27 -235 19z m161 -233 c63 -38 64 -49 64 -465 0 -416 -1 -424 -61 -467 -46 -33 -144 -34 -186 -3 -64 48 -63 43 -66 465 l-2 384 23 38 c13 20 36 44 50 52 40 21 140 19 178 -4z"></path><path id="pFaGhHSGW" d="M4645 5163 c-122 -16 -224 -74 -280 -158 -63 -96 -66 -126 -63 -567 3 -382 4 -395 26 -449 58 -146 203 -229 397 -229 231 0 378 108 421 309 17 80 20 655 4 766 -27 182 -143 298 -325 325 -70 10 -123 11 -180 3z m189 -244 c53 -46 58 -85 54 -486 -3 -327 -4 -350 -23 -382 -34 -58 -68 -76 -140 -76 -74 0 -109 20 -138 77 -16 33 -18 72 -19 410 -1 344 0 376 17 412 27 56 66 76 147 76 61 0 71 -3 102 -31z"></path><path id="pW8ZMXoA4" d="M11050 5161 c-125 -24 -197 -62 -250 -134 -40 -55 -70 -154 -70 -233 l0 -64 124 0 123 0 6 67 c10 103 57 153 149 160 162 12 215 -170 87 -295 -18 -18 -89 -71 -157 -118 -233 -163 -297 -244 -309 -391 -14 -186 65 -312 231 -370 79 -28 262 -24 340 7 130 50 206 167 206 315 l0 75 -119 0 c-132 0 -131 1 -131 -71 0 -84 -39 -132 -115 -143 -55 -7 -105 12 -132 53 -30 45 -29 95 3 160 29 58 63 88 237 208 192 132 259 215 277 343 22 154 -38 305 -151 375 -76 48 -244 75 -349 56z"></path><path id="p2Eg08xcH" d="M14125 5163 c-113 -15 -206 -64 -262 -137 -47 -61 -65 -119 -67 -211 l-1 -80 121 -3 122 -3 7 65 c11 107 68 166 160 166 142 0 194 -164 89 -280 -19 -21 -89 -75 -155 -121 -158 -108 -260 -203 -296 -277 -26 -52 -28 -67 -28 -167 0 -94 3 -117 24 -162 57 -128 210 -201 396 -190 115 7 194 36 256 94 66 62 92 126 93 233 l1 85 -120 0 -120 0 -5 -65 c-9 -109 -39 -140 -135 -140 -89 0 -135 43 -135 126 0 89 50 145 259 290 212 147 271 228 279 379 7 130 -29 237 -104 307 -80 74 -232 111 -379 91z"></path><path id="p19VyXNMYK" d="M2217 5143 c-4 -3 -7 -312 -7 -685 l0 -678 238 0 c131 0 265 5 298 11 72 13 166 61 201 103 118 139 115 473 -5 599 -69 73 -147 98 -332 106 l-135 6 3 245 c2 152 -1 256 -7 273 l-11 27 -118 0 c-65 0 -122 -3 -125 -7z m473 -758 c65 -39 75 -63 75 -188 0 -94 -3 -117 -20 -147 -32 -55 -74 -71 -180 -68 l-90 3 -3 200 c-1 110 0 206 3 213 8 22 171 12 215 -13z"></path><path id="p1GwLhyrY2" d="M3525 5138 c-3 -7 -6 -267 -8 -578 l-2 -565 -145 -5 -145 -5 2 -85 c1 -47 2 -93 2 -102 1 -17 28 -18 420 -18 l419 0 7 95 c4 51 4 99 0 105 -4 6 -59 10 -146 10 l-139 0 0 574 c0 514 -2 574 -16 580 -9 3 -67 6 -130 6 -83 0 -116 -4 -119 -12z"></path><path id="pbDv1qx20" d="M5533 5143 l-43 -4 0 -680 0 -679 205 0 c204 0 205 0 210 23 10 46 76 399 110 592 43 245 46 257 51 252 5 -5 11 -37 89 -474 36 -199 68 -369 71 -378 5 -13 36 -15 215 -15 l209 0 0 679 c0 662 -1 680 -19 686 -11 3 -66 3 -123 1 -57 -3 -106 -6 -110 -6 -4 0 -9 -242 -10 -537 l-3 -538 -32 155 c-18 85 -57 272 -87 415 -30 143 -64 310 -76 370 -12 61 -24 118 -26 128 -5 14 -18 17 -92 17 -48 0 -92 -4 -98 -8 -7 -4 -21 -52 -32 -107 -12 -55 -42 -199 -67 -320 -26 -121 -66 -313 -89 -427 -23 -115 -44 -210 -47 -212 -2 -2 -4 237 -4 532 l0 537 -80 1 c-44 0 -99 -1 -122 -3z"></path><path id="p33g0eCkd" d="M7001 5140 c-8 -4 -10 -205 -9 -681 l3 -674 352 -3 353 -2 5 22 c3 13 5 59 3 103 l-3 80 -222 3 -223 2 0 170 0 170 178 2 177 3 0 100 0 100 -177 3 -178 2 0 195 c0 191 0 194 22 201 12 4 115 5 228 3 l205 -4 0 105 0 105 -352 1 c-193 1 -356 -2 -362 -6z"></path><path id="p1VlmAawx" d="M8225 5138 c-3 -7 -4 -264 -2 -571 1 -307 0 -563 -3 -567 -3 -5 -69 -11 -145 -12 l-140 -3 0 -100 0 -100 425 0 425 0 0 100 0 100 -145 5 -145 5 -5 575 -5 575 -128 3 c-96 2 -129 -1 -132 -10z"></path><path id="p1FbAlDEqT" d="M9057 5144 c-4 -4 -7 -313 -7 -687 l0 -679 273 4 c254 4 276 6 330 27 84 33 135 77 171 146 30 58 31 64 31 190 0 122 -2 133 -27 181 -26 49 -55 80 -108 115 l-24 16 47 27 c92 54 107 103 117 366 5 157 11 214 24 244 13 31 14 41 4 48 -18 11 -226 10 -247 -2 -27 -14 -40 -102 -44 -301 -3 -153 -6 -181 -23 -210 -30 -51 -70 -69 -168 -76 l-86 -6 -2 299 -3 299 -126 3 c-69 1 -128 -1 -132 -4z m464 -800 c57 -33 74 -75 74 -181 0 -77 -3 -96 -21 -120 -35 -47 -71 -61 -164 -65 l-85 -3 -3 199 -2 199 83 -5 c59 -3 94 -10 118 -24z"></path><path id="p6bWpVjqj" d="M10207 5144 c-4 -4 -7 -313 -7 -686 l0 -678 130 0 130 0 -2 682 -3 683 -121 3 c-66 1 -123 -1 -127 -4z"></path><path id="pE1BzLlNy" d="M12054 5135 c-2 -5 -5 -264 -7 -575 l-2 -565 -145 -5 c-80 -3 -144 -8 -142 -12 1 -5 2 -51 2 -103 l0 -95 420 0 420 0 0 105 0 105 -139 0 -139 0 -6 28 c-3 15 -4 271 -2 569 1 299 0 547 -4 553 -8 13 -251 9 -256 -5z"></path><path id="pU5eh2xAw" d="M12692 5142 c-10 -7 -10 -21 2 -73 8 -35 33 -152 55 -259 22 -107 63 -301 91 -430 27 -129 64 -300 81 -380 16 -80 35 -162 40 -182 l10 -38 165 0 c122 0 166 3 169 12 23 61 297 1337 290 1349 -7 11 -235 12 -252 1 -6 -4 -19 -50 -28 -102 -9 -52 -19 -111 -23 -130 l-8 -35 -147 -3 c-145 -3 -147 -2 -152 20 -3 13 -14 72 -25 131 -11 59 -22 112 -25 118 -7 11 -225 12 -243 1z m555 -476 c1 -1 -20 -120 -47 -266 -26 -146 -51 -287 -55 -313 -3 -27 -8 -47 -10 -45 -2 1 -19 100 -39 218 -36 215 -63 360 -72 392 -3 10 2 18 13 20 15 4 205 -2 210 -6z"></path><path id="pt19kWDqP" d="M5071 3379 c-133 -25 -211 -159 -198 -335 13 -171 112 -274 263 -274 73 0 120 17 163 58 34 32 73 114 60 126 -2 2 -26 6 -53 7 -49 4 -50 3 -70 -36 -44 -84 -159 -85 -214 -3 -24 37 -27 53 -30 139 -3 81 0 105 16 143 48 108 185 117 237 15 14 -26 20 -29 67 -29 l51 0 -7 33 c-22 111 -151 181 -285 156z"></path><path id="p10qtiqElk" d="M5793 3379 c-59 -11 -96 -33 -137 -80 -47 -55 -69 -124 -69 -218 0 -187 86 -297 242 -309 153 -11 251 72 281 238 27 151 -42 309 -155 355 -43 17 -113 24 -162 14z m153 -132 c43 -46 58 -104 51 -194 -9 -126 -57 -186 -148 -187 -59 -1 -95 23 -127 85 -21 39 -23 55 -20 134 4 104 22 145 79 183 28 19 43 23 83 19 41 -4 55 -11 82 -40z"></path><path id="pfhdbVwcs" d="M7697 3379 c-126 -30 -192 -130 -192 -294 0 -138 40 -224 130 -280 44 -27 56 -30 136 -30 81 0 90 2 130 30 52 37 77 70 85 113 l7 32 -56 0 c-51 0 -55 -2 -67 -29 -13 -32 -62 -61 -104 -61 -48 0 -102 36 -125 83 -17 34 -21 62 -21 133 1 139 38 202 126 212 34 3 56 0 80 -13 36 -19 67 -73 62 -108 -3 -20 -9 -22 -63 -22 l-60 0 0 -45 0 -45 115 0 115 0 2 150 c0 90 -3 155 -9 163 -23 28 -78 7 -78 -30 0 -15 -6 -14 -42 11 -48 33 -112 44 -171 30z"></path><path id="pcNcUTD6z" d="M8787 3376 c-62 -17 -94 -41 -134 -100 -41 -60 -54 -108 -54 -196 -1 -109 23 -173 84 -234 58 -58 104 -76 188 -76 150 0 251 120 253 300 1 102 -20 170 -69 228 -63 73 -172 105 -268 78z m143 -101 c48 -25 72 -76 77 -168 9 -135 -27 -214 -106 -238 -45 -13 -102 1 -138 34 -56 50 -71 232 -27 308 42 71 127 99 194 64z"></path><path id="pf6sfB1Le" d="M6367 3374 c-4 -4 -7 -139 -7 -301 l0 -293 55 0 55 0 0 250 0 250 126 0 125 0 -3 48 -3 47 -171 3 c-93 1 -173 -1 -177 -4z"></path><path id="p1BjwxfgoN" d="M6937 3373 c-4 -3 -7 -138 -7 -300 l0 -293 186 0 185 0 -3 42 -3 43 -127 3 -128 3 0 74 0 75 121 0 120 0 -3 43 -3 42 -117 3 -118 3 0 84 0 85 135 0 135 0 0 44 c0 31 -5 46 -16 50 -21 8 -349 8 -357 -1z"></path><path id="pvE31JtKJ" d="M8257 3374 c-4 -4 -7 -139 -7 -301 l0 -293 55 0 55 0 -2 298 -3 297 -45 3 c-25 2 -49 0 -53 -4z"></path><path id="pv6T6rxwq" d="M9718 3374 c-5 -4 -8 -140 -8 -302 l0 -294 148 4 c134 3 150 5 185 27 54 33 76 58 102 116 59 128 34 297 -57 381 -61 58 -91 67 -233 72 -71 2 -133 1 -137 -4z m258 -110 c18 -9 44 -33 56 -53 20 -31 23 -49 23 -136 0 -87 -3 -105 -23 -136 -28 -45 -82 -69 -157 -69 l-54 0 -3 201 c-2 110 -1 203 1 205 11 11 127 2 157 -12z"></path><path id="pwvARfMQ1" d="M10415 3367 c-3 -7 -4 -140 -3 -297 l3 -285 183 -3 182 -2 0 45 0 45 -130 0 -130 0 0 75 0 74 123 3 122 3 0 40 0 40 -122 3 -123 3 0 84 0 84 137 3 138 3 -3 40 c-2 22 -6 43 -9 48 -2 4 -85 7 -184 7 -135 0 -181 -3 -184 -13z"></path></g></g><g id="l2hpMftRSUQ16e3VOs45oR" fill="rgb(187,145,72)" style="transform: none;"><g style="transform: none;"><path id="p1Gk2kS7ZV" d="M4050 6161 l-65 -6 0 -285 0 -285 140 0 c126 1 144 3 184 24 56 29 88 64 117 126 32 68 34 207 3 275 -56 124 -169 169 -379 151z m208 -105 c67 -35 99 -112 89 -212 -12 -118 -74 -174 -193 -174 -55 0 -62 2 -68 23 -8 30 -8 362 1 370 12 13 144 7 171 -7z"></path><path id="p5GXU0PE2" d="M4798 6163 l-68 -4 0 -289 0 -290 180 0 180 0 6 24 c14 58 10 61 -131 66 l-130 5 0 70 0 70 118 3 117 3 0 44 0 44 -117 3 -118 3 -3 78 -3 77 131 0 130 0 11 27 c5 15 8 38 4 50 -5 22 -8 23 -123 21 -64 -1 -147 -3 -184 -5z"></path><path id="p7mjAWPzE" d="M6542 6163 l-72 -4 2 -287 3 -287 185 0 185 0 0 40 0 40 -132 3 -131 3 -4 70 c-2 39 -1 73 1 75 2 2 55 4 118 4 l113 0 0 45 0 45 -115 0 -115 0 0 80 0 80 136 0 135 0 -3 46 -3 45 -115 3 c-63 2 -148 1 -188 -1z"></path><path id="psCbtR8Oo" d="M7503 6157 c-19 -10 -159 -229 -237 -369 -12 -21 -24 -38 -28 -38 -5 0 -8 92 -8 205 l0 205 -50 0 -50 0 2 -287 3 -288 55 0 55 0 43 65 c24 36 80 126 125 200 l82 135 5 -200 5 -200 48 -3 47 -3 -2 292 -3 292 -35 3 c-19 2 -45 -2 -57 -9z"></path><path id="pv9fx473j" d="M7973 6163 l-73 -4 0 -290 0 -289 183 2 182 3 3 42 3 42 -133 3 -133 3 0 70 0 70 118 3 117 3 0 44 0 44 -117 3 -118 3 -3 77 -3 77 138 3 138 3 0 45 0 45 -115 1 c-63 0 -148 -1 -187 -3z"></path><path id="p8FMiqcNr" d="M8595 6161 c-67 -6 -70 -7 -73 -33 -4 -35 5 -52 103 -183 151 -204 195 -265 195 -270 0 -3 -63 -5 -140 -5 l-140 0 0 -45 0 -45 205 0 205 0 0 38 c0 39 -7 50 -209 332 l-83 115 145 3 145 3 6 33 c12 65 10 66 -148 64 -77 -1 -172 -4 -211 -7z"></path><path id="pOD4WFu18" d="M9346 6160 c-41 -13 -93 -66 -111 -114 -11 -30 -16 -95 -19 -241 -2 -110 -1 -205 1 -212 3 -8 24 -13 54 -13 l49 0 0 199 c0 110 4 211 10 226 19 49 58 75 114 75 31 0 61 -6 75 -16 44 -31 51 -68 51 -284 l0 -201 53 3 52 3 0 200 c0 139 -4 214 -14 247 -15 52 -60 104 -108 124 -36 15 -161 17 -207 4z"></path><path id="p1AU3AxR0e" d="M10073 6163 l-103 -4 0 -290 0 -289 183 2 182 3 0 40 0 40 -132 3 -133 3 0 74 0 75 120 0 120 0 0 45 0 45 -120 0 -120 0 0 80 0 79 138 3 137 3 3 41 3 41 -53 6 c-29 4 -69 6 -88 5 -19 -1 -81 -4 -137 -5z"></path><path id="pNTiWhJLA" d="M10690 6161 l-65 -6 0 -285 0 -285 50 0 50 0 0 240 0 240 125 5 125 5 0 45 0 45 -110 1 c-60 0 -139 -2 -175 -5z"></path><path id="p12u1zDYZb" d="M5901 6138 c-4 -13 -29 -84 -55 -158 -26 -74 -68 -190 -92 -258 -24 -67 -44 -127 -44 -133 0 -6 22 -9 52 -7 l52 3 75 222 c41 123 78 219 82 215 3 -4 37 -99 74 -212 38 -113 73 -211 78 -218 6 -8 26 -12 51 -10 35 3 41 6 39 25 -1 12 -44 140 -95 285 l-93 263 -58 3 c-52 3 -58 1 -66 -20z"></path><path id="paKZ9USWW" d="M11210 6108 c11 -29 54 -154 96 -278 42 -124 81 -231 87 -237 5 -8 32 -13 64 -13 34 0 55 5 58 13 13 36 194 535 200 550 7 16 2 18 -51 15 l-58 -3 -20 -63 -20 -63 -115 3 -115 3 -19 63 -19 62 -54 0 -53 0 19 -52z m320 -175 c1 -15 -75 -243 -80 -243 -5 0 -53 144 -77 233 -5 15 3 17 76 17 44 0 81 -3 81 -7z"></path><path id="p1A7telx2k" d="M3895 3159 c-110 -5 -348 -15 -530 -24 -181 -8 -373 -15 -425 -16 -169 -1 -144 -16 40 -23 96 -4 326 -13 510 -21 184 -8 432 -17 550 -20 118 -3 248 -8 288 -11 l72 -5 0 66 0 65 -152 -2 c-84 0 -243 -5 -353 -9z"></path><path id="pYYmseIaa" d="M11202 3108 l3 -63 95 2 c483 11 1515 52 1507 60 -7 7 -1349 63 -1515 63 l-93 0 3 -62z"></path><path id="p9lgWSVWS" d="M7435 2334 c-317 -56 -613 -222 -915 -514 -52 -50 -111 -100 -130 -110 -35 -18 -165 -61 -297 -100 -69 -19 -96 -40 -54 -40 63 0 365 77 405 104 12 7 53 42 91 76 271 241 571 404 834 454 87 17 191 21 191 9 -1 -5 -61 -28 -135 -52 -265 -87 -461 -208 -648 -399 -74 -76 -87 -94 -79 -109 6 -10 52 -59 104 -109 129 -125 278 -223 468 -309 58 -27 124 -61 148 -77 23 -16 61 -38 85 -48 l42 -20 -52 0 c-74 0 -233 33 -334 70 -159 58 -333 170 -529 344 -46 41 -87 72 -90 69 -3 -2 40 -48 95 -101 232 -224 557 -401 850 -464 35 -7 127 -13 225 -13 240 1 373 32 606 144 198 96 351 208 532 391 l110 111 83 -24 c97 -28 247 -53 257 -43 11 11 -17 24 -121 56 -169 53 -224 83 -304 165 -299 305 -607 480 -952 540 -106 19 -377 18 -486 -1z m541 -139 c222 -42 443 -154 649 -327 103 -86 185 -171 185 -191 0 -14 -176 -190 -251 -250 -65 -52 -211 -138 -315 -184 -89 -40 -221 -79 -231 -69 -3 3 24 37 60 76 109 115 157 239 157 401 0 158 -51 296 -148 401 -60 64 -145 120 -209 137 -92 25 -16 29 103 6z m-114 -177 c258 -119 308 -495 91 -688 -125 -111 -289 -135 -439 -64 -66 31 -157 127 -192 201 -24 53 -27 69 -27 173 0 111 1 118 34 185 36 73 106 152 159 179 103 53 275 60 374 14z m-636 -60 c-31 -47 -66 -160 -77 -248 -14 -107 -3 -199 36 -294 13 -33 23 -62 21 -64 -7 -6 -102 46 -195 109 -51 34 -125 93 -164 131 l-72 69 71 67 c39 37 98 87 132 112 82 60 222 140 244 140 17 0 17 -2 4 -22z"></path><path id="pIUzlfUXE" d="M7615 1781 c-129 -80 -118 -254 20 -307 82 -31 167 4 206 84 40 82 7 187 -71 227 -41 21 -118 19 -155 -4z"></path><path id="p1Dc2pDyNt" d="M6280 1395 c-69 -29 -153 -65 -187 -80 -59 -25 -84 -55 -47 -55 20 0 194 60 319 109 71 29 90 40 90 56 0 34 -42 27 -175 -30z"></path><path id="pYMFRmO47" d="M8923 1434 c-9 -24 14 -40 127 -82 181 -68 271 -95 281 -85 6 6 5 14 -3 20 -18 14 -370 163 -386 163 -7 0 -15 -7 -19 -16z"></path><path id="p1WRu1U3D" d="M6619 1182 c-31 -26 -115 -96 -188 -156 -83 -68 -131 -115 -131 -127 0 -11 6 -19 14 -19 15 0 150 101 291 219 99 83 105 88 105 114 0 29 -32 19 -91 -31z"></path><path id="p1HkllwPa5" d="M8657 1218 c-10 -30 31 -67 292 -266 97 -75 121 -85 121 -53 0 12 -48 58 -132 127 -73 59 -159 129 -190 156 -57 48 -83 58 -91 36z"></path><path id="pV1THMrXZ" d="M6789 1091 c-23 -19 -23 -20 -6 -39 30 -32 283 -157 397 -195 131 -44 284 -76 406 -84 l94 -6 0 -118 c0 -65 4 -120 10 -124 14 -9 20 27 23 140 l2 100 100 7 c185 13 376 65 560 152 117 55 226 127 223 146 -2 8 -15 21 -30 30 -24 13 -31 13 -50 1 -168 -106 -378 -192 -556 -228 -132 -26 -392 -24 -538 5 -176 35 -354 101 -505 188 -86 50 -97 52 -130 25z"></path><path id="pZ2bSYgqy" d="M7226 717 c-40 -88 -79 -207 -72 -214 4 -4 14 -3 22 2 18 12 104 211 104 242 0 42 -30 25 -54 -30z"></path><path id="pGjDaTmES" d="M8097 763 c-13 -12 -7 -34 44 -148 39 -88 56 -115 70 -115 11 0 19 2 19 5 0 3 -18 53 -41 112 -52 139 -71 168 -92 146z"></path></g></g></svg>