<svg class="img-fluid" id="outputsvg" xmlns="http://www.w3.org/2000/svg" style="transform: none; transform-origin: 50% 50%; cursor: move; max-height: none;" width="1000" height="70" viewBox="0 0 10000 700"><g id="l4YyGMSkzIP4m8Jpb12zlY7" fill="rgb(93,65,30)" style="transform: none;"><g><path id="pT9zUQQOn" d="M4854 641 c-28 -16 -65 -46 -83 -67 l-33 -37 45 -15 c42 -13 50 -13 82 2 19 9 35 21 35 26 0 5 24 14 54 21 61 13 150 -2 160 -27 3 -8 15 -14 26 -14 13 0 20 -7 20 -20 0 -12 8 -30 18 -41 22 -23 42 -84 42 -127 0 -36 27 -52 33 -19 l4 22 2 -22 c1 -30 41 -33 41 -4 0 13 8 21 23 23 14 2 23 11 25 26 2 12 9 23 15 23 7 1 158 2 337 4 179 1 360 2 403 3 l78 2 -3 38 -3 37 -400 0 c-531 1 -477 -4 -512 50 -15 25 -34 45 -40 45 -7 0 -13 6 -13 14 0 8 -13 17 -30 21 -16 4 -30 10 -30 13 0 19 -70 37 -180 46 -59 5 -70 3 -116 -23z m-5 -80 c-24 -21 -46 -37 -48 -35 -2 2 -2 5 0 7 2 1 21 17 42 35 54 45 58 40 6 -7z"></path><path id="p18I0QEQtZ" d="M380 501 c-8 -5 -54 -11 -103 -15 -126 -10 -187 -35 -187 -77 0 -47 96 -75 167 -48 24 9 30 7 45 -12 17 -20 24 -21 86 -14 37 4 73 12 80 18 9 7 123 8 365 3 211 -4 372 -3 402 3 28 5 167 12 310 16 143 4 263 9 266 11 4 2 258 4 565 4 308 0 727 3 932 7 l372 6 0 39 0 38 -1342 1 c-739 1 -1467 0 -1619 0 -236 -1 -278 1 -289 14 -14 17 -28 18 -50 6z"></path><path id="p1FcudoHvn" d="M4715 495 c-8 -13 -44 -15 -230 -15 -121 0 -345 -3 -497 -7 l-278 -6 0 -34 0 -33 80 0 c79 0 80 0 80 -25 0 -23 4 -25 45 -25 41 0 45 2 45 25 l0 25 180 0 180 0 0 -25 c0 -25 1 -25 80 -25 79 0 80 0 80 25 0 23 4 25 44 25 71 0 106 -10 106 -31 0 -54 91 -84 110 -36 7 17 9 18 9 5 1 -10 7 -18 15 -18 14 0 36 87 36 142 0 32 -7 35 -26 11 -13 -17 -14 -17 -8 0 4 11 1 17 -10 17 -9 0 -16 5 -16 10 0 15 -14 12 -25 -5z"></path><path id="pp23VA5rY" d="M9564 495 c-10 -8 -29 -15 -41 -15 -20 0 -23 -5 -23 -39 0 -25 5 -41 15 -45 8 -3 15 -17 15 -31 0 -23 4 -25 40 -25 33 0 40 3 40 20 0 15 7 20 29 20 17 0 32 4 35 9 3 4 33 11 67 15 55 5 64 4 76 -14 11 -15 25 -20 64 -20 48 0 50 1 44 23 -12 36 -44 64 -83 71 -20 3 -59 10 -87 16 -27 6 -63 8 -78 4 -18 -4 -37 0 -52 10 -30 20 -36 20 -61 1z"></path><path id="p1Ckl7Zk5D" d="M6848 473 c-24 -4 -28 -9 -28 -39 l0 -34 224 0 c123 0 238 3 255 6 27 6 31 10 31 40 l0 34 -227 -1 c-126 -1 -240 -4 -255 -6z"></path><path id="pdRmUsAb3" d="M5200 287 c0 -43 -132 -137 -193 -137 -44 0 -137 33 -137 48 0 9 -11 12 -32 10 -29 -3 -33 -7 -36 -35 -3 -28 0 -33 17 -33 12 0 21 -5 21 -11 0 -39 117 -76 208 -65 103 12 204 90 217 166 8 47 -8 78 -19 36 -3 -14 -12 -26 -18 -26 -9 0 -9 3 0 12 19 19 15 48 -8 48 -11 0 -20 -6 -20 -13z"></path></g></g><g id="l2kwhgIkJY1NwvwclkchISn" fill="rgb(106,78,40)" style="transform: none;"><g><path id="pY26Nrqnq" d="M4900 661 c0 -5 6 -11 13 -14 6 -3 -5 -12 -25 -21 -35 -15 -55 -33 -46 -41 2 -3 33 7 68 22 67 26 138 28 178 3 14 -9 12 -10 -10 -5 -26 5 -28 3 -28 -25 0 -28 3 -30 35 -30 30 0 35 -3 35 -24 0 -31 17 -44 70 -52 41 -7 44 -6 31 9 -7 10 -10 17 -5 18 5 0 1 3 -8 7 -11 5 -14 12 -9 21 6 9 17 -4 37 -45 24 -48 29 -71 28 -126 0 -59 2 -68 18 -68 11 0 18 7 18 19 0 25 40 31 227 31 149 0 152 0 155 22 4 30 38 37 38 9 0 -17 6 -21 33 -21 17 0 62 -3 100 -7 63 -6 67 -5 67 15 0 19 7 20 183 24 100 2 188 2 195 0 6 -2 12 -13 12 -23 0 -18 12 -19 300 -19 l300 0 0 25 c0 14 5 25 10 25 6 0 10 -11 10 -25 0 -24 2 -25 70 -25 68 0 70 1 70 25 0 16 6 25 15 25 9 0 15 -9 15 -25 0 -24 2 -25 70 -25 68 0 70 1 70 25 l0 25 145 0 145 0 0 -25 c0 -23 4 -25 45 -25 41 0 45 2 45 25 0 21 5 25 30 25 25 0 30 -4 30 -25 0 -22 4 -25 40 -25 36 0 40 3 40 25 l0 25 120 0 120 0 0 -25 c0 -22 4 -25 35 -25 31 0 35 3 35 25 0 16 6 25 15 25 9 0 15 -9 15 -25 0 -23 4 -25 45 -25 41 0 45 2 45 25 l0 25 120 0 c113 0 120 -1 120 -20 0 -16 7 -20 35 -20 28 0 35 4 35 20 0 20 7 20 505 20 504 0 505 0 505 -21 0 -11 6 -27 14 -35 17 -16 72 -19 81 -4 3 6 26 10 51 10 40 0 44 2 44 24 0 21 5 24 45 28 40 3 45 1 45 -18 0 -19 8 -22 62 -28 65 -6 82 0 76 30 -2 13 -13 20 -35 22 -17 2 -37 9 -43 17 -10 12 -7 12 19 2 38 -14 51 -2 25 23 -22 22 -181 55 -215 45 -26 -9 -24 -25 4 -26 122 -6 137 -15 38 -25 -39 -3 -74 -11 -77 -15 -3 -5 -10 -9 -15 -9 -6 0 -8 4 -5 9 3 5 -1 14 -8 20 -11 9 -17 7 -29 -9 -13 -19 -18 -20 -36 -9 -14 10 -19 20 -15 36 l6 23 -1731 0 c-1147 0 -1731 -3 -1731 -10 0 -5 8 -10 18 -10 10 0 27 -7 38 -15 17 -13 12 -14 -56 -16 -221 -3 -425 -1 -418 6 7 7 154 17 341 23 26 1 47 7 47 12 0 6 -125 10 -355 10 -301 0 -355 -2 -355 -14 0 -8 -8 -17 -17 -19 -10 -3 2 -6 27 -7 46 -2 46 -4 -2 -14 -19 -4 -28 -13 -28 -26 0 -10 -4 -21 -9 -24 -9 -6 -27 65 -24 93 4 45 -66 127 -149 174 -41 24 -57 27 -142 27 -53 0 -96 -4 -96 -9z m240 -76 c7 -8 18 -15 25 -15 7 0 16 -7 19 -16 5 -13 3 -14 -6 -7 -7 5 -26 19 -42 31 -16 12 -24 22 -19 22 6 0 16 -7 23 -15z m2140 -134 c24 -7 23 -8 -10 -13 -57 -9 -426 -10 -417 -1 7 7 102 12 377 20 14 1 36 -2 50 -6z m-1672 -22 c-16 -11 -124 -11 -158 -1 -17 5 1 9 60 12 94 6 120 3 98 -11z"></path><path id="ptewxcBd1" d="M4914 599 c-17 -5 -37 -16 -44 -24 -17 -21 8 -29 65 -21 39 6 45 10 45 32 0 26 -12 29 -66 13z"></path><path id="pPz17nQoz" d="M4755 555 c-28 -34 -56 -94 -54 -118 1 -12 1 -40 1 -61 l-2 -40 -22 24 c-20 21 -20 24 -4 35 14 11 11 14 -28 24 -25 6 -84 11 -133 12 l-88 1 50 14 c35 10 74 12 128 8 69 -6 77 -5 71 10 -6 15 -92 16 -1015 16 -567 0 -1009 -4 -1009 -9 0 -5 21 -11 48 -14 38 -5 767 -12 915 -10 20 1 37 -3 37 -8 0 -5 -62 -9 -137 -10 -1088 -5 -1558 -9 -1703 -14 -96 -3 -258 -8 -360 -11 -102 -3 -207 -9 -235 -14 -27 -4 -211 -6 -408 -3 -274 4 -361 2 -372 -7 -13 -11 -15 -7 -15 24 0 29 -4 36 -20 36 -24 0 -53 -41 -44 -64 11 -29 -14 -17 -28 14 -15 35 -22 36 -79 10 -56 -25 -70 -25 -103 1 -21 17 -24 24 -15 35 7 8 9 17 5 21 -3 3 -6 1 -6 -6 0 -7 -4 -10 -9 -7 -14 9 -42 -29 -44 -60 -2 -35 18 -41 146 -43 73 -1 87 -4 87 -17 0 -15 9 -16 73 -9 39 3 77 11 83 16 13 11 2908 13 3687 2 483 -6 507 -7 507 -25 0 -14 8 -18 35 -18 33 0 35 2 35 35 0 19 -4 35 -9 35 -5 0 -7 9 -4 20 3 11 9 20 14 20 5 0 9 14 9 30 0 17 4 30 9 30 8 0 71 95 71 108 0 16 -50 6 -65 -13z m-377 -116 c-5 -4 -153 -6 -327 -6 -262 1 -287 2 -146 7 225 8 487 7 473 -1z m72 -49 c0 -5 -16 -10 -36 -10 -21 0 -33 4 -29 10 3 6 19 10 36 10 16 0 29 -4 29 -10z"></path><path id="poLninHGh" d="M4814 528 c-12 -12 -26 -32 -32 -44 -10 -19 -8 -20 19 -16 34 5 42 17 37 57 l-3 27 -21 -24z"></path><path id="p6k67VSsO" d="M394 495 c-4 -9 -4 -18 -2 -21 9 -8 39 8 35 19 -6 18 -27 20 -33 2z"></path><path id="p16BeBE5oB" d="M253 483 c-28 -11 -11 -23 32 -23 48 0 60 14 23 24 -26 7 -38 7 -55 -1z"></path><path id="p8w9Hf0oO" d="M847 483 c-12 -11 -8 -23 8 -23 8 0 15 7 15 15 0 16 -12 20 -23 8z"></path><path id="p129eQPUuJ" d="M1078 482 c-34 -2 -48 -7 -48 -18 0 -15 165 -19 605 -15 385 4 823 1 879 -5 43 -5 57 -4 52 5 -4 6 -2 11 3 11 6 0 11 4 11 10 0 9 -1377 20 -1502 12z"></path><path id="pA9to0Q49" d="M463 468 c2 -9 30 -13 92 -13 62 0 90 4 93 13 3 9 -20 12 -93 12 -73 0 -96 -3 -92 -12z"></path><path id="pVydcoGXf" d="M700 470 c0 -5 11 -10 25 -10 14 0 25 5 25 10 0 6 -11 10 -25 10 -14 0 -25 -4 -25 -10z"></path><path id="pQvgvmTJr" d="M970 470 c0 -5 7 -10 15 -10 8 0 15 5 15 10 0 6 -7 10 -15 10 -8 0 -15 -4 -15 -10z"></path><path id="p15ihhbKNs" d="M5242 330 c0 -19 2 -27 5 -17 2 9 2 25 0 35 -3 9 -5 1 -5 -18z"></path><path id="pvAmBi1vX" d="M5161 231 c-29 -27 -43 -71 -22 -71 16 0 61 42 76 71 15 27 14 29 -4 29 -10 0 -33 -13 -50 -29z"></path><path id="prrA2eW5b" d="M5220 222 c-14 -20 -25 -41 -25 -47 0 -5 -7 -15 -15 -22 -13 -10 -11 -12 11 -13 34 0 81 64 73 98 -8 30 -15 28 -44 -16z"></path><path id="pU77EK1EA" d="M4787 223 c-13 -12 -7 -64 8 -69 8 -4 15 -12 15 -20 0 -16 50 -44 80 -44 27 0 26 23 -2 44 -23 16 -23 16 -1 6 30 -14 33 -13 33 14 0 17 -9 27 -29 36 -16 6 -32 18 -35 26 -5 14 -57 20 -69 7z"></path></g></g><g id="l3EB3xLInTtykTq1Pmmm6Ua" fill="rgb(121,94,55)" style="transform: none;"><g><path id="pYAwh10Qj" d="M4915 633 c-65 -19 -119 -59 -145 -105 -14 -25 -29 -38 -42 -38 -18 0 -20 -5 -16 -45 2 -25 0 -45 -4 -45 -5 0 -8 -14 -8 -31 0 -25 -3 -29 -13 -21 -9 7 -147 13 -403 17 -214 4 -400 7 -414 7 -14 0 -754 0 -1645 1 -891 0 -1651 1 -1690 2 -44 1 -78 -3 -92 -12 -22 -13 -23 -12 -23 28 0 33 -3 40 -17 37 -10 -2 -19 -13 -21 -26 -2 -12 -8 -22 -13 -22 -5 0 -9 -9 -9 -20 0 -11 -4 -20 -10 -20 -5 0 -10 7 -10 15 0 12 -17 15 -89 15 -73 0 -93 3 -114 20 -45 36 -77 3 -53 -54 10 -23 25 -38 54 -49 l41 -16 30 29 c45 45 90 40 111 -14 7 -18 15 -26 25 -22 8 3 17 1 20 -4 4 -6 15 -10 26 -10 14 0 21 9 26 30 4 23 11 30 29 30 12 0 26 5 29 11 5 7 74 8 234 2 124 -4 262 -7 306 -6 398 8 446 8 454 -5 6 -11 33 -11 142 -1 196 18 3011 19 3016 2 3 -7 18 -13 34 -13 19 0 29 -5 29 -15 0 -8 4 -15 9 -15 5 0 13 -10 17 -22 25 -80 145 -178 218 -178 25 0 36 4 36 15 0 8 -6 15 -12 15 -7 0 -25 6 -40 14 -15 8 -37 12 -49 9 -16 -5 -20 -3 -14 7 4 7 4 15 -1 19 -5 3 -25 24 -44 46 l-35 40 40 -37 c61 -56 155 -99 155 -70 0 8 -48 32 -63 32 -12 0 -66 62 -83 96 -10 19 -11 24 -1 20 30 -12 86 -26 130 -31 26 -4 47 -10 47 -16 0 -5 15 -9 34 -9 39 0 66 28 66 69 0 30 82 110 121 118 25 5 27 8 18 32 -18 50 -32 71 -49 71 -21 0 -40 19 -34 35 7 17 -33 44 -55 38 -11 -3 -21 2 -24 11 -5 12 -21 16 -67 16 -33 0 -60 -4 -60 -9 0 -5 -9 -7 -20 -4 -11 3 -20 0 -20 -6 0 -5 -6 -8 -14 -5 -19 7 -112 -87 -125 -129 -6 -18 -15 -60 -20 -92 l-9 -60 -1 56 c-3 130 94 245 220 264 208 31 370 -184 280 -370 -14 -27 -25 -56 -25 -63 -1 -8 -10 -20 -20 -28 -19 -13 -19 -14 -2 -14 24 0 86 66 86 91 0 10 -4 19 -10 19 -5 0 -10 5 -10 10 0 6 9 10 20 10 13 0 20 7 20 19 0 14 10 20 40 25 54 9 4191 9 4199 0 3 -4 0 -9 -6 -11 -24 -9 -13 -38 20 -54 52 -25 92 -4 50 26 -15 11 -15 14 -1 28 19 20 252 30 281 13 14 -9 21 -7 33 8 8 11 14 23 14 27 0 9 -38 19 -78 19 -19 0 -31 4 -27 10 10 16 -6 80 -20 80 -7 0 -12 -8 -11 -17 1 -19 -30 -31 -91 -32 -46 -1 -61 -14 -43 -36 10 -12 9 -15 -8 -15 -20 0 -40 22 -40 45 -1 20 -22 16 -22 -5 0 -12 -5 -30 -10 -41 -10 -17 -13 -18 -26 -4 -12 11 -13 19 -4 36 l12 21 -1966 -4 c-1555 -2 -1968 -6 -1978 -15 -9 -10 -8 -13 10 -13 12 0 22 -4 22 -10 0 -6 -60 -10 -159 -10 -88 0 -166 -3 -174 -6 -11 -4 -17 5 -22 35 -4 23 -11 41 -16 41 -13 0 -11 28 2 32 8 3 5 17 -9 43 -12 22 -21 34 -22 28 0 -7 -5 -13 -11 -13 -15 0 -65 62 -61 76 5 22 -36 35 -126 39 -58 2 -104 -2 -137 -12z m975 -252 c0 -8 -130 -3 -139 5 -2 2 28 4 67 4 40 0 72 -4 72 -9z m523 -8 c-13 -2 -35 -2 -50 0 -16 2 -5 4 22 4 28 0 40 -2 28 -4z m115 0 c-16 -2 -40 -2 -55 0 -16 2 -3 4 27 4 30 0 43 -2 28 -4z m110 0 c-16 -2 -40 -2 -55 0 -16 2 -3 4 27 4 30 0 43 -2 28 -4z m205 0 c-23 -2 -64 -2 -90 0 -26 2 -7 3 42 3 50 0 71 -1 48 -3z m180 0 c-13 -2 -33 -2 -45 0 -13 2 -3 4 22 4 25 0 35 -2 23 -4z m170 0 c-13 -2 -33 -2 -45 0 -13 2 -3 4 22 4 25 0 35 -2 23 -4z"></path><path id="pwSBiJulU" d="M3680 470 c0 -5 11 -10 25 -10 14 0 25 5 25 10 0 6 -11 10 -25 10 -14 0 -25 -4 -25 -10z"></path><path id="pXrwrqOyD" d="M7960 470 c0 -6 35 -10 85 -10 50 0 85 4 85 10 0 6 -35 10 -85 10 -50 0 -85 -4 -85 -10z"></path><path id="pmxIjrCGT" d="M8330 470 c0 -5 7 -10 15 -10 8 0 15 5 15 10 0 6 -7 10 -15 10 -8 0 -15 -4 -15 -10z"></path><path id="pwKg9WPYt" d="M8430 470 c0 -5 18 -10 40 -10 22 0 40 5 40 10 0 6 -18 10 -40 10 -22 0 -40 -4 -40 -10z"></path><path id="p1A2oRf7EK" d="M3250 410 c-165 -4 -210 -7 -170 -13 90 -13 1563 -6 1550 7 -12 12 -940 16 -1380 6z"></path><path id="p19JAIy50x" d="M2918 397 c29 -7 49 -7 65 1 18 9 10 11 -43 10 l-65 0 43 -11z"></path><path id="ptmWpj99j" d="M5350 400 c0 -6 32 -10 78 -10 53 0 72 3 62 10 -20 13 -140 13 -140 0z"></path><path id="pk7SGJhfb" d="M5241 333 c-1 -16 -7 -23 -20 -23 -20 0 -31 -18 -31 -51 0 -10 -5 -19 -11 -19 -20 0 -40 -30 -37 -57 l3 -26 37 37 c39 39 73 112 65 142 -4 16 -5 15 -6 -3z"></path></g></g><g id="l6muBRZJeb2PUpIAivjYgf1" fill="rgb(132,105,64)" style="transform: none;"><g><path id="pkwS4gX77" d="M5110 617 c0 -2 21 -18 48 -37 l47 -33 -39 37 c-34 31 -56 44 -56 33z"></path><path id="p15zbhAFYl" d="M4812 575 c-21 -19 -47 -54 -58 -77 -10 -24 -25 -48 -32 -54 -8 -6 -18 -37 -22 -70 -4 -32 -8 -51 -9 -41 -1 15 -12 17 -78 17 -407 0 -726 8 -733 21 -6 9 -12 10 -22 2 -9 -8 -325 -13 -1108 -16 -602 -3 -1105 -8 -1117 -12 -13 -4 -23 -14 -23 -22 0 -13 125 -15 1023 -13 562 1 1239 2 1505 1 475 -1 482 -1 482 -21 0 -17 7 -20 44 -20 38 0 46 -4 52 -22 15 -49 66 -108 123 -142 66 -40 71 -42 71 -22 0 8 5 16 12 18 6 2 -4 4 -23 4 -41 0 -94 33 -132 82 -20 27 -24 38 -15 44 10 6 9 8 -3 8 -9 0 -19 7 -23 15 -3 9 0 15 10 15 11 0 13 6 9 19 -8 28 -9 102 0 142 10 45 60 120 96 145 16 10 29 22 29 27 0 16 -22 6 -58 -28z"></path><path id="p13jHWH4nt" d="M9800 442 c0 -14 -12 -21 -47 -29 l-48 -11 55 2 c52 1 55 2 58 29 2 15 -1 27 -7 27 -6 0 -11 -8 -11 -18z"></path><path id="pgo4HA52b" d="M5225 444 c-5 -1 -22 -5 -36 -8 -15 -3 -50 -28 -79 -55 -41 -39 -51 -53 -45 -70 4 -13 2 -21 -5 -21 -6 0 -9 -4 -6 -9 3 -5 0 -14 -8 -20 -9 -8 -15 -8 -18 -2 -1 6 -33 15 -69 20 -85 12 -129 34 -129 65 0 17 -8 25 -34 33 -43 13 -50 1 -36 -63 6 -25 7 -51 4 -57 -4 -7 -4 -9 1 -5 4 4 21 -10 36 -32 35 -48 93 -86 151 -99 36 -8 55 -6 117 14 86 28 132 67 162 134 27 62 23 183 -6 175z"></path><path id="p18rJAd1bl" d="M5267 383 c4 -44 0 -69 -15 -105 -12 -27 -17 -48 -11 -50 16 -5 1 -32 -31 -53 -34 -23 -38 -35 -12 -35 23 0 89 93 98 137 5 24 12 32 36 37 54 11 778 7 778 -4 0 -5 18 -10 40 -10 22 0 40 5 40 10 0 6 11 10 25 10 14 0 25 -4 25 -10 0 -5 25 -10 55 -10 30 0 55 5 55 10 0 7 183 10 530 10 523 0 530 0 530 20 0 20 -7 20 -612 21 -837 2 -1448 -1 -1480 -7 -23 -5 -26 -2 -21 15 3 12 1 21 -4 21 -6 0 -8 11 -5 25 3 18 0 25 -11 25 -12 0 -14 -10 -10 -57z"></path><path id="p18DQ7FzRs" d="M4173 403 c20 -2 54 -2 75 0 20 2 3 4 -38 4 -41 0 -58 -2 -37 -4z"></path><path id="p16zVsrCLf" d="M4328 401 c14 -9 140 -6 150 3 3 3 -33 6 -79 6 -48 0 -78 -4 -71 -9z"></path><path id="pfDl1dkub" d="M4503 403 c9 -2 25 -2 35 0 9 3 1 5 -18 5 -19 0 -27 -2 -17 -5z"></path><path id="p1AX9DFsrw" d="M6860 400 c88 -12 2678 -12 2685 0 4 7 -441 10 -1367 9 -755 -1 -1348 -5 -1318 -9z"></path><path id="pObvs14fP" d="M90 379 c0 -5 -4 -7 -10 -4 -12 8 -12 5 0 -32 9 -25 15 -29 40 -25 23 3 30 10 30 26 0 12 -5 27 -12 34 -15 15 -48 16 -48 1z"></path><path id="p1Ayoqgk4D" d="M370 349 c-9 -17 -8 -23 5 -33 16 -12 16 -13 0 -30 -29 -28 -6 -39 65 -31 58 7 62 9 58 30 l-5 23 536 -2 c496 -1 536 0 539 16 2 12 -7 19 -35 25 -40 8 -335 11 -483 4 -47 -2 -200 0 -341 4 -185 5 -258 4 -263 -4 -10 -16 -26 -14 -26 4 0 22 -38 18 -50 -6z"></path><path id="pq8QA9VfR" d="M8010 343 c0 -23 2 -23 124 -23 121 0 125 1 129 23 l4 22 2 -22 c1 -19 7 -23 37 -23 31 0 35 3 32 22 -3 22 -6 22 -165 23 -162 0 -163 0 -163 -22z"></path><path id="pjjT0cAJF" d="M8383 363 c15 -2 39 -2 55 0 15 2 2 4 -28 4 -30 0 -43 -2 -27 -4z"></path><path id="ph5tA0e5x" d="M8603 363 c9 -2 25 -2 35 0 9 3 1 5 -18 5 -19 0 -27 -2 -17 -5z"></path><path id="p11b7DKRgS" d="M8688 363 c6 -3 12 -11 12 -19 0 -12 35 -14 209 -14 192 0 209 1 213 18 5 17 -9 18 -221 18 -124 1 -220 -1 -213 -3z"></path><path id="p6Pl2TCBK" d="M9193 363 c-7 -3 -13 -11 -13 -19 0 -10 14 -14 55 -14 42 0 55 3 55 15 0 10 10 15 30 15 20 0 30 -5 30 -15 0 -12 15 -15 74 -15 91 0 106 -5 106 -37 0 -18 4 -24 14 -20 8 3 17 -1 20 -9 3 -8 17 -14 31 -14 22 0 25 4 25 34 l0 34 86 7 c48 4 113 5 145 1 53 -5 60 -4 70 15 7 13 7 19 1 15 -6 -3 -13 -2 -17 4 -9 15 -318 7 -323 -9 -3 -9 -8 -9 -19 1 -12 9 -64 13 -187 14 -94 1 -177 -1 -183 -3z"></path><path id="p19fBiBJ9J" d="M188 340 c-32 -25 -42 -58 -19 -64 17 -5 73 -9 104 -7 25 1 21 29 -5 34 -17 3 -14 5 10 6 25 1 32 -3 32 -18 0 -16 18 -31 36 -31 12 0 2 71 -12 84 -23 24 -114 21 -146 -4z"></path><path id="pbcQQngvm" d="M7420 340 c0 -20 7 -20 290 -20 283 0 290 0 290 20 0 20 -7 20 -290 20 -283 0 -290 0 -290 -20z"></path></g></g><g id="lA0fTKmSLC9VgS5YmtSvEk" fill="rgb(148,121,80)" style="transform: none;"><g><path id="p10W7bO4cQ" d="M4990 641 c0 -6 8 -11 18 -11 10 0 42 -6 72 -14 65 -17 78 -12 28 9 -51 21 -118 30 -118 16z"></path><path id="pg3hapNey" d="M4817 580 c-25 -20 -73 -88 -66 -94 2 -2 28 23 58 55 53 59 57 77 8 39z"></path><path id="pMm26B3m1" d="M9798 439 c3 -22 7 -27 13 -18 13 21 11 49 -4 49 -9 0 -12 -10 -9 -31z"></path><path id="p1HKWiZxWI" d="M5210 361 c0 -5 -9 -11 -20 -14 -24 -6 -28 -47 -5 -47 19 0 19 -13 0 -50 -9 -17 -12 -30 -8 -30 21 0 -71 -38 -121 -50 -31 -7 -59 -17 -62 -22 -3 -4 -24 -8 -47 -8 -36 -1 -39 -2 -23 -12 28 -16 125 -13 167 5 79 33 142 112 155 196 6 37 5 41 -15 41 -11 0 -21 -4 -21 -9z"></path><path id="pGHvfqz8k" d="M7988 360 c-15 -5 -618 -9 -1340 -9 -722 -1 -1327 -4 -1344 -7 -27 -5 -32 -11 -37 -42 -13 -81 -22 -104 -48 -122 -12 -8 -33 -25 -47 -38 -14 -12 -35 -25 -46 -27 -95 -21 -119 -24 -160 -16 -25 5 -60 6 -78 2 l-31 -6 28 -19 c23 -15 43 -18 124 -14 83 3 102 8 138 31 56 36 109 92 130 138 13 28 24 39 41 39 15 0 22 6 22 20 0 20 7 20 335 20 328 0 335 0 335 -20 0 -17 7 -20 44 -20 34 0 46 4 49 18 4 16 5 16 6 0 1 -16 13 -18 106 -18 100 0 105 1 105 21 0 15 4 19 16 15 9 -3 20 -6 25 -6 5 0 9 -7 9 -15 0 -13 109 -15 920 -15 913 0 920 0 920 20 0 11 7 20 15 20 8 0 15 -9 15 -20 0 -19 7 -20 90 -20 81 0 90 2 90 19 0 17 13 19 188 24 103 3 339 6 525 7 l337 1 0 -26 c0 -23 4 -25 40 -25 34 0 42 4 50 25 5 14 14 25 20 25 5 0 10 -11 10 -25 0 -14 -4 -25 -10 -25 -5 0 -10 -5 -10 -11 0 -7 13 -9 38 -4 20 3 61 9 90 12 47 4 52 7 52 29 0 13 5 24 10 24 6 0 10 9 10 21 0 20 -4 20 -92 15 -51 -3 -94 -10 -96 -15 -2 -6 -13 -4 -27 5 -21 14 -101 16 -627 18 -332 1 -608 -2 -615 -6 -6 -5 -14 -5 -18 2 -8 13 -52 13 -60 0 -6 -10 -194 -7 -212 3 -5 2 -20 1 -35 -3z"></path><path id="pMyViE2tR" d="M382 348 c-8 -8 -8 -17 -1 -30 6 -11 8 -31 5 -44 -6 -22 -3 -24 26 -23 18 0 27 3 21 6 -7 2 -13 16 -13 30 0 25 1 26 20 8 11 -10 18 -21 15 -25 -2 -4 8 -6 23 -5 15 1 255 3 535 3 492 2 507 3 507 21 0 26 -43 32 -208 29 -80 -2 -136 1 -140 7 -4 6 -144 10 -379 10 -292 0 -373 3 -373 13 0 15 -22 16 -38 0z"></path><path id="pbfEAbDJh" d="M9800 341 c0 -13 7 -21 18 -21 9 0 33 -3 52 -6 31 -5 37 -3 47 18 10 23 10 24 -53 26 -59 3 -64 2 -64 -17z"></path><path id="pQZpQ7Sl8" d="M224 339 c-11 -4 -25 -13 -32 -22 -19 -22 22 -44 92 -48 52 -4 57 -2 62 18 3 12 3 31 -1 42 -5 16 -14 20 -54 19 -26 -1 -56 -5 -67 -9z"></path><path id="plqHOWyal" d="M3175 342 c-4 -4 -286 -7 -628 -7 -342 0 -675 -4 -739 -9 -115 -9 -118 -10 -118 -33 l0 -23 1075 0 1075 0 0 29 c0 28 -1 29 -72 36 -99 10 -584 15 -593 7z"></path><path id="pPq8CrLOJ" d="M4318 332 l-288 -2 0 -30 0 -30 328 0 c256 0 329 3 329 13 0 6 2 17 3 22 6 25 -3 32 -42 31 -24 0 -172 -2 -330 -4z"></path><path id="pyUBTEwpO" d="M1570 290 c0 -17 7 -20 40 -20 33 0 40 3 40 20 0 17 -7 20 -40 20 -33 0 -40 -3 -40 -20z"></path></g></g><g id="l6AOeaBWyaQm5Dq9w84HUwe" fill="rgb(165,143,106)" style="transform: none;"><g><path id="pRQ4kmaXS" d="M4939 641 c-56 -11 -125 -57 -159 -106 -16 -24 -30 -49 -30 -55 0 -7 15 9 33 35 46 67 115 104 209 112 53 5 66 9 48 14 -31 9 -55 9 -101 0z"></path><path id="pAry8tngp" d="M9700 349 c-25 -5 -58 -11 -75 -12 -26 -2 -30 -6 -33 -37 -2 -19 -9 -39 -15 -43 -7 -5 6 -5 28 -2 22 3 83 10 135 14 113 10 139 18 163 45 17 20 17 20 -3 28 -37 14 -153 18 -200 7z"></path><path id="p10rIOjnqk" d="M388 333 c-3 -10 1 -31 7 -47 10 -23 13 -25 18 -11 12 30 8 75 -7 75 -7 0 -16 -8 -18 -17z"></path><path id="pGify7sE5" d="M8585 340 c-11 -5 -66 -9 -122 -9 -62 -1 -103 -5 -103 -11 0 -5 -13 -10 -30 -10 -16 0 -30 5 -30 10 0 6 -32 10 -75 10 -60 0 -75 -3 -75 -15 0 -8 7 -15 15 -15 21 0 19 -18 -2 -23 -10 -3 299 -4 686 -3 l704 1 10 28 c5 16 6 31 2 35 -10 10 -956 12 -980 2z m-195 -50 c0 -6 -27 -10 -60 -10 -33 0 -60 4 -60 10 0 6 27 10 60 10 33 0 60 -4 60 -10z"></path><path id="p2tgKI63u" d="M275 333 c-63 -8 -80 -14 -65 -23 8 -5 25 -7 37 -4 14 4 29 0 39 -11 15 -15 18 -15 40 6 13 12 21 26 18 30 -5 9 -13 9 -69 2z"></path><path id="p1DoT6CAZ4" d="M1144 329 c-3 -6 -147 -9 -342 -9 -185 0 -343 1 -350 0 -11 0 -10 -3 1 -15 12 -12 75 -14 378 -16 200 -1 414 -1 474 -1 68 1 105 -2 96 -7 -9 -6 49 -9 150 -9 115 0 166 3 171 11 10 16 1408 24 1408 8 0 -7 -121 -12 -392 -14 l-393 -2 410 -2 c226 -1 404 1 398 4 -31 12 -8 23 50 25 56 1 57 2 15 5 -27 2 -48 8 -48 14 0 5 -16 9 -35 9 -19 0 -35 -4 -35 -10 0 -5 -11 -10 -25 -10 -14 0 -25 6 -25 14 0 11 -156 13 -950 13 -570 1 -952 -3 -956 -8z"></path><path id="pXDqSEymU" d="M5300 318 c0 -10 -4 -18 -9 -18 -8 0 -22 -32 -25 -55 -1 -5 -3 -12 -6 -15 -16 -15 -39 -60 -31 -60 13 0 61 70 61 90 0 13 104 15 922 15 508 0 758 1 556 2 -234 2 -368 7 -368 13 0 6 134 11 368 12 l367 3 -312 2 c-269 3 -313 5 -313 18 0 23 -67 20 -73 -2 -4 -14 -5 -14 -6 -3 -1 14 -63 16 -566 15 -531 0 -565 -1 -565 -17z m770 -28 c0 -5 -7 -10 -15 -10 -8 0 -15 5 -15 10 0 6 7 10 15 10 8 0 15 -4 15 -10z m180 0 c0 -5 -13 -10 -30 -10 -16 0 -30 5 -30 10 0 6 14 10 30 10 17 0 30 -4 30 -10z"></path><path id="pobBnLbCJ" d="M3540 320 c0 -5 -47 -11 -107 -13 l-108 -3 123 -2 c68 -1 122 -6 122 -11 0 -6 -17 -12 -37 -14 -21 -2 62 -4 185 -5 l222 -2 0 30 0 30 -100 0 c-60 0 -100 -4 -100 -10 0 -5 -16 -10 -35 -10 -19 0 -35 5 -35 10 0 6 -28 10 -65 10 -36 0 -65 -4 -65 -10z m230 -30 c0 -6 -28 -10 -65 -10 -37 0 -65 4 -65 10 0 6 28 10 65 10 37 0 65 -4 65 -10z"></path><path id="plGLy4SJV" d="M4559 325 c-3 -2 -30 -9 -60 -14 l-54 -9 74 -1 c90 -1 87 -10 -6 -20 -66 -8 -65 -8 45 -10 69 0 112 3 112 9 0 6 -9 10 -20 10 -11 0 -20 5 -20 10 0 6 6 10 13 9 6 -1 21 -1 32 1 l20 1 -20 9 c-22 9 -109 13 -116 5z"></path><path id="pQlrchvew" d="M7870 321 c0 -6 -15 -12 -32 -14 -25 -3 -22 -4 15 -5 26 -1 47 -6 47 -11 0 -6 -21 -12 -47 -14 -27 -2 -1 -3 57 -3 58 0 84 1 58 3 -27 2 -48 8 -48 14 0 5 21 10 48 11 36 1 39 2 15 5 -18 2 -33 8 -33 14 0 5 -18 9 -40 9 -22 0 -40 -4 -40 -9z"></path><path id="p17Thd6Vg5" d="M7403 303 c48 -2 125 -2 170 0 45 1 6 3 -88 3 -93 0 -130 -2 -82 -3z"></path><path id="pDwm3TZdO" d="M1903 273 c26 -2 67 -2 90 0 23 2 2 3 -48 3 -49 0 -68 -1 -42 -3z"></path><path id="p161pruNMx" d="M2268 273 c12 -2 30 -2 40 0 9 3 -1 5 -23 4 -22 0 -30 -2 -17 -4z"></path><path id="p3BBPgUSq" d="M7403 273 c48 -2 125 -2 170 0 45 1 6 3 -88 3 -93 0 -130 -2 -82 -3z"></path><path id="pKVDClZnz" d="M5146 184 c-42 -36 -89 -54 -145 -54 -22 0 -31 -4 -25 -9 14 -14 110 5 148 28 35 22 72 59 65 65 -2 2 -22 -11 -43 -30z"></path><path id="pW5u6Sls1" d="M5136 118 c-26 -13 -62 -21 -103 -22 -35 0 -63 -4 -63 -8 0 -5 -19 -8 -42 -8 -32 0 -39 -3 -28 -10 8 -5 55 -10 103 -10 73 0 95 4 127 22 21 13 41 31 44 40 2 10 3 18 3 17 -1 -1 -20 -10 -41 -21z"></path></g></g><g id="l70Dq2uxorr6sy7jSADXmYT" fill="rgb(237,222,180)" style="transform: none;"><g><path id="p19uNalkeT" d="M390 314 c0 -31 23 -28 28 4 2 15 -2 22 -12 22 -11 0 -16 -9 -16 -26z"></path><path id="p14NMSg1w2" d="M2107 328 c-6 -4 -9 -9 -6 -13 3 -3 412 -8 908 -12 742 -5 901 -9 901 -20 0 -11 53 -13 288 -11 267 2 272 3 75 5 -131 2 -213 7 -213 13 0 6 105 10 283 11 335 1 366 4 343 26 -4 5 -384 9 -844 10 -658 2 -838 0 -844 -10 -6 -9 -12 -9 -29 1 -15 10 -24 11 -32 3 -15 -15 -44 -14 -51 2 -5 10 -7 10 -12 0 -6 -14 -144 -19 -144 -5 0 9 -608 9 -623 0z"></path><path id="p17In5qjvK" d="M5329 319 c-24 -19 12 -19 2101 -16 2026 2 2125 3 2128 20 3 17 -90 17 -2100 16 -2051 -1 -2105 -1 -2129 -20z"></path><path id="p138XnO3VF" d="M9600 333 c0 -6 -3 -18 -6 -27 -4 -10 -1 -16 9 -16 24 0 31 20 13 38 -9 9 -16 11 -16 5z"></path><path id="p5OxJIFrP" d="M9650 325 c0 -13 16 -15 102 -13 70 2 103 7 106 16 3 9 -22 12 -102 12 -89 0 -106 -3 -106 -15z"></path><path id="pHqTbeakd" d="M7163 273 c37 -2 96 -2 130 0 34 2 4 3 -68 3 -71 0 -99 -1 -62 -3z"></path><path id="pUOv6sYAG" d="M7673 273 c31 -2 83 -2 115 0 31 2 5 3 -58 3 -63 0 -89 -1 -57 -3z"></path><path id="pibkutq2l" d="M8063 273 c48 -2 126 -2 175 0 48 1 8 3 -88 3 -96 0 -136 -2 -87 -3z"></path><path id="p4zKS8SXp" d="M8473 273 c9 -2 25 -2 35 0 9 3 1 5 -18 5 -19 0 -27 -2 -17 -5z"></path><path id="pPq1RIgO1" d="M5237 195 c-21 -24 -58 -56 -82 -71 -25 -14 -45 -30 -45 -35 0 -37 123 60 156 122 8 16 13 29 11 29 -1 0 -20 -20 -40 -45z"></path></g></g></svg>