<svg class="img-fluid" id="outputsvg" xmlns="http://www.w3.org/2000/svg" style="transform: matrix(1, 0, 0, 1, 0, 0); transform-origin: 50% 50%; cursor: move; max-height: 344.62px; transition: transform 200ms ease-in-out;" width="545" height="114" viewBox="0 0 5450 1140"><g id="lkxFg6tF4KnTXnjFfj9qkO" fill="rgb(191,169,137)" style="transform: none;"><g style="transform: none;"><path id="pNKNLQ1EC" d="M283 1120 c-102 -7 -148 -29 -197 -93 -55 -72 -59 -98 -62 -417 -2 -319 5 -395 48 -473 74 -133 294 -159 435 -51 18 14 41 43 51 65 10 22 21 36 25 33 4 -4 7 -35 7 -69 0 -34 5 -66 12 -73 9 -9 73 -12 224 -12 180 0 215 2 228 16 12 11 16 39 18 107 l2 92 5 -95 c3 -52 10 -101 14 -107 6 -10 58 -13 200 -13 180 0 196 1 237 22 25 13 55 38 67 57 l23 34 0 -45 c0 -26 6 -50 14 -57 9 -8 118 -11 361 -11 282 1 353 4 375 15 25 13 29 13 34 0 5 -13 54 -15 342 -14 216 0 344 4 357 11 19 10 19 17 13 139 -6 97 -4 129 5 129 7 0 9 -10 6 -27 -3 -15 -1 -34 3 -42 5 -9 16 -38 25 -64 35 -100 110 -149 238 -155 88 -5 139 10 206 58 70 51 85 93 89 256 5 174 9 169 -133 169 -136 0 -135 1 -135 -132 0 -79 -3 -104 -12 -100 -19 6 -19 588 0 595 9 3 12 -25 12 -117 0 -109 2 -121 19 -131 28 -14 224 -13 239 2 7 7 12 36 12 64 0 29 5 56 12 60 8 5 9 -4 4 -34 -4 -26 -2 -42 4 -42 5 0 10 -17 10 -37 0 -21 11 -159 26 -308 20 -214 29 -273 42 -283 22 -17 362 -17 384 1 12 9 22 84 47 352 18 187 35 379 38 428 13 195 22 64 23 -340 0 -309 4 -430 12 -440 9 -12 48 -14 202 -11 175 3 195 5 233 25 64 35 99 85 114 162 l13 66 11 -55 c15 -73 37 -112 82 -149 105 -86 301 -80 401 12 71 66 85 156 80 521 -5 320 -11 352 -88 434 -57 61 -97 75 -200 73 -135 -3 -218 -54 -255 -157 -9 -27 -20 -56 -23 -64 -3 -8 -4 -22 -3 -30 2 -10 -1 -11 -7 -5 -5 6 -14 36 -21 67 -7 31 -19 62 -27 68 -7 7 -14 16 -14 21 0 21 -71 75 -111 86 -43 11 -383 5 -387 -7 -3 -7 -8 -7 -15 -1 -17 13 -186 23 -222 13 -29 -8 -30 -11 -36 -81 -5 -73 -17 -94 -49 -88 -11 1 -18 24 -25 74 -5 40 -15 77 -22 84 -15 15 -168 24 -212 12 -33 -8 -33 -9 -35 -71 0 -34 2 -62 7 -62 4 0 7 -12 6 -27 0 -24 -3 -22 -23 22 -27 58 -76 108 -126 129 -19 8 -38 15 -42 15 -5 1 -11 1 -15 2 -36 3 -155 -4 -184 -11 -76 -21 -150 -113 -165 -209 -13 -80 -23 -39 -17 67 8 149 8 149 -109 151 -51 1 -106 -2 -123 -7 l-30 -8 -5 -225 -5 -224 -93 -3 -93 -3 1 225 c1 124 -1 230 -5 235 -5 9 -58 9 -221 2 -23 -1 -33 -7 -37 -21 -7 -27 -25 -26 -29 2 -3 20 -8 21 -113 22 -60 1 -118 -2 -127 -6 -17 -7 -18 -36 -18 -407 0 -441 5 -411 -66 -411 l-34 0 0 399 c0 359 -2 400 -17 412 -11 10 -46 14 -119 14 -86 0 -106 -3 -121 -18 -18 -17 -21 -145 -23 -799 0 -5 -18 -8 -40 -8 l-40 0 0 58 c-1 73 -16 140 -40 173 -18 26 -18 27 2 67 18 38 20 60 19 277 0 130 -3 240 -6 244 -6 11 -182 13 -220 3 -22 -6 -31 -15 -33 -35 -4 -30 -22 -37 -22 -9 0 36 -20 42 -141 42 -85 0 -118 -3 -122 -12 -3 -10 -7 -10 -20 0 -20 17 -450 23 -466 7 -5 -5 -11 -43 -12 -82 -2 -74 -12 -94 -23 -48 -13 50 -101 130 -153 138 -10 1 -22 5 -28 8 -5 2 -51 2 -102 -1z m137 -93 c82 -42 110 -107 110 -259 l0 -98 -69 0 -69 0 -3 113 c-5 135 -11 147 -78 147 -80 0 -76 20 -79 -343 -2 -206 1 -334 8 -351 9 -26 13 -27 67 -24 73 4 83 20 83 141 l0 87 70 0 70 0 0 -76 c0 -41 -5 -95 -11 -118 -28 -110 -152 -184 -261 -156 -63 17 -107 55 -137 119 -26 56 -26 57 -29 348 -2 183 1 306 7 331 39 144 186 208 321 139z m3100 0 c82 -42 110 -107 110 -259 l0 -98 -69 0 -69 0 -3 113 c-5 135 -11 147 -78 147 -80 0 -76 20 -79 -343 -2 -206 1 -334 8 -351 9 -26 13 -27 67 -24 73 4 83 20 83 141 l0 87 70 0 70 0 0 -76 c0 -41 -5 -95 -11 -118 -28 -110 -152 -184 -261 -156 -63 17 -107 55 -137 119 -26 56 -26 57 -29 348 -2 183 1 306 7 331 39 144 186 208 321 139z m1718 4 c45 -23 62 -42 93 -101 24 -45 24 -48 24 -365 0 -309 -1 -321 -22 -360 -71 -133 -242 -162 -346 -58 -61 61 -67 96 -67 419 0 307 5 343 57 412 58 77 170 100 261 53z m-4218 -51 l0 -70 -110 0 -110 0 0 -145 0 -145 100 0 100 0 0 -65 0 -65 -100 0 -100 0 0 -130 0 -130 100 0 100 0 0 -70 0 -70 -170 0 -170 0 0 480 0 480 180 0 180 0 0 -70z m270 -160 l0 -230 54 0 c87 0 86 -3 86 246 l0 214 70 0 70 0 0 -187 c0 -204 -9 -247 -57 -268 -37 -16 -31 -64 12 -98 45 -36 59 -87 53 -197 -7 -111 -32 -164 -91 -191 -35 -15 -66 -19 -189 -19 l-148 0 0 480 0 480 70 0 70 0 0 -230z m660 -180 l0 -410 60 0 60 0 0 -70 0 -70 -195 0 -195 0 0 70 0 70 60 0 60 0 0 410 0 410 75 0 75 0 0 -410z m360 -70 l0 -480 -65 0 -65 0 0 480 0 480 65 0 65 0 0 -480z m78 -7 c-1 -269 -4 -430 -5 -358 -7 325 -7 845 0 845 4 0 6 -219 5 -487z m212 257 l0 -230 95 0 95 0 0 -70 0 -70 -95 0 -95 0 0 -110 0 -110 100 0 100 0 0 -70 0 -70 -170 0 -170 0 0 480 0 480 70 0 70 0 0 -230z m450 -250 l0 -480 -65 0 -65 0 0 480 0 480 65 0 65 0 0 -480z m830 433 c0 -27 3 -65 6 -85 l7 -38 87 0 c99 0 100 0 100 92 0 74 4 78 71 78 54 0 59 -2 59 -22 0 -32 -80 -888 -86 -915 -4 -23 -7 -23 -144 -23 -137 0 -140 0 -144 23 -3 12 -23 218 -46 457 -22 239 -42 445 -44 458 -3 21 0 22 65 22 l69 0 0 -47z m763 35 c55 -16 101 -65 123 -130 17 -47 19 -87 19 -358 l0 -306 -26 -49 c-18 -36 -38 -57 -70 -75 -40 -23 -56 -25 -191 -28 l-148 -4 0 481 0 481 126 0 c70 0 145 -5 167 -12z m-4323 -288 c0 -147 -5 -143 156 -138 l114 3 0 -62 c0 -58 -10 -78 -25 -53 -9 15 -209 8 -228 -9 -14 -11 -17 -33 -17 -118 0 -79 -3 -104 -12 -101 -10 4 -14 72 -15 289 -1 156 0 290 2 297 2 6 9 12 15 12 6 0 10 -44 10 -120z m758 -200 l0 -299 -21 19 c-17 17 -35 20 -104 20 l-83 0 0 70 0 70 83 0 c51 0 88 5 95 12 16 16 16 210 0 226 -7 7 -44 12 -95 12 l-83 0 0 85 0 84 98 3 c53 2 100 2 104 1 3 -2 6 -138 6 -303z m1772 -205 c0 -52 -5 -55 -111 -55 l-79 0 0 50 0 49 88 3 c48 2 90 2 95 0 4 -2 7 -23 7 -47z"></path><path id="p14DtLQXRE" d="M5076 908 c-14 -19 -16 -66 -16 -338 0 -366 -1 -360 80 -360 81 0 80 -6 80 355 0 363 1 358 -77 363 -44 3 -53 0 -67 -20z m76 -85 c2 -21 2 -152 0 -290 -2 -234 -10 -300 -26 -222 -8 40 -8 512 0 533 11 28 23 17 26 -21z"></path><path id="pxd6GAIi1" d="M1290 345 l0 -125 64 0 c85 0 91 8 91 125 0 117 -6 125 -91 125 l-64 0 0 -125z m90 0 c0 -46 -4 -65 -13 -65 -8 0 -13 20 -14 65 -1 51 1 65 13 65 11 0 14 -15 14 -65z"></path><path id="p107t5Gq7r" d="M3900 763 c0 -10 9 -130 20 -268 11 -137 20 -258 20 -267 0 -14 8 -18 35 -18 31 0 35 3 39 33 5 31 46 500 46 525 0 8 -23 12 -80 12 -70 0 -80 -2 -80 -17z"></path><path id="pfqbYQ0Ct" d="M4490 570 l0 -360 56 0 c101 0 94 -28 94 358 0 250 -3 341 -12 350 -7 7 -39 12 -75 12 l-63 0 0 -360z m90 0 c0 -260 -2 -300 -15 -300 -13 0 -15 40 -15 300 0 260 2 300 15 300 13 0 15 -40 15 -300z"></path></g></g><g id="l15HV73SihFJ8tDcnWw6aN0" fill="rgb(0,17,73)" style="transform: none;"><g style="transform: none;"><path id="piOnCHwVL" d="M216 1076 c-76 -28 -126 -83 -147 -158 -6 -25 -9 -158 -7 -361 l3 -322 26 -56 c45 -96 130 -138 250 -125 73 7 128 34 167 82 40 48 52 101 52 228 l0 106 -100 0 -100 0 0 -87 c0 -102 -13 -137 -53 -141 -21 -3 -29 2 -37 23 -11 28 -14 564 -4 603 8 29 50 40 72 18 13 -13 18 -41 21 -131 l3 -115 99 0 99 0 0 128 c0 185 -23 244 -113 290 -60 31 -172 40 -231 18z"></path><path id="p15lVcWzxc" d="M3316 1076 c-76 -28 -126 -83 -147 -158 -6 -25 -9 -158 -7 -361 l3 -322 26 -56 c45 -96 130 -138 250 -125 73 7 128 34 167 82 40 48 52 101 52 228 l0 106 -100 0 -100 0 0 -87 c0 -102 -13 -137 -53 -141 -21 -3 -29 2 -37 23 -11 28 -14 564 -4 603 8 29 50 40 72 18 13 -13 18 -41 21 -131 l3 -115 99 0 99 0 0 128 c0 185 -23 244 -113 290 -60 31 -172 40 -231 18z"></path><path id="pHLNAmTEo" d="M5060 1081 c-80 -25 -126 -71 -154 -154 -23 -68 -24 -648 -1 -723 30 -103 131 -162 260 -152 95 8 157 47 198 123 21 39 22 51 22 390 l0 350 -30 55 c-32 58 -75 94 -134 110 -41 11 -124 12 -161 1z m117 -211 c9 -18 13 -100 13 -305 0 -238 -2 -284 -16 -303 -19 -28 -49 -28 -68 0 -24 34 -24 583 0 616 20 29 54 25 71 -8z"></path><path id="pAwEtOWBm" d="M630 570 l0 -510 200 0 200 0 0 100 0 100 -100 0 -100 0 0 100 0 100 100 0 100 0 0 95 0 95 -100 0 -100 0 0 115 0 115 110 0 110 0 0 100 0 100 -210 0 -210 0 0 -510z"></path><path id="pQEMAyaFp" d="M1120 570 l0 -510 178 0 c152 0 183 3 219 19 66 30 86 79 91 221 5 141 -6 190 -53 227 -33 26 -33 27 -12 38 12 5 30 26 39 45 16 30 18 65 18 253 l0 217 -100 0 -100 0 0 -214 c0 -233 -3 -246 -56 -246 l-24 0 0 230 0 230 -100 0 -100 0 0 -510z m281 -146 c7 -9 13 -41 13 -79 0 -75 -13 -95 -60 -95 l-34 0 0 95 0 95 34 0 c18 0 39 -7 47 -16z"></path><path id="p162RJPzkT" d="M1770 670 l0 -410 -60 0 -60 0 0 -100 0 -100 225 0 225 0 0 100 0 100 -60 0 -60 0 0 410 0 410 -105 0 -105 0 0 -410z"></path><path id="p15BsF9Akr" d="M2150 570 l0 -510 95 0 95 0 0 510 0 510 -95 0 -95 0 0 -510z"></path><path id="p1EWa40po9" d="M2430 570 l0 -510 200 0 200 0 0 100 0 100 -100 0 -100 0 0 80 0 80 95 0 95 0 0 100 0 100 -95 0 -95 0 0 230 0 230 -100 0 -100 0 0 -510z"></path><path id="pB4lbp1Pz" d="M2890 570 l0 -510 95 0 95 0 0 510 0 510 -95 0 -95 0 0 -510z"></path><path id="p2X64ZRPQ" d="M3710 1069 c0 -26 91 -966 96 -987 4 -22 6 -22 174 -22 168 0 170 0 174 22 3 13 23 223 46 468 22 245 43 464 47 488 l5 42 -95 0 c-107 0 -107 0 -107 -78 0 -86 -5 -92 -70 -92 l-57 0 -7 38 c-3 20 -6 58 -6 85 l0 47 -100 0 c-68 0 -100 -4 -100 -11z m315 -346 c-3 -16 -12 -116 -20 -223 -16 -198 -24 -265 -30 -259 -2 2 -10 101 -19 219 -9 118 -18 232 -21 253 l-5 37 50 0 c48 0 49 -1 45 -27z"></path><path id="pTINkTxzg" d="M4320 569 l0 -511 178 4 c167 3 179 4 221 28 32 18 52 39 70 75 l26 49 0 336 c0 375 -5 409 -69 474 -47 47 -92 56 -270 56 l-156 0 0 -511z m278 319 c9 -9 12 -94 12 -320 0 -294 -1 -308 -19 -318 -11 -5 -31 -10 -45 -10 l-26 0 0 330 0 330 33 0 c18 0 38 -5 45 -12z"></path></g></g></svg>